<?xml version="1.0" encoding="UTF-8" standalone="no"?>
<!DOCTYPE svg PUBLIC "-//W3C//DTD SVG 1.1//EN"
 "http://www.w3.org/Graphics/SVG/1.1/DTD/svg11.dtd">
<!-- Generated by graphviz version 2.43.0 (0)
 -->
<!-- Title: %3 Pages: 1 -->
<svg width="1303pt" height="622pt"
 viewBox="0.00 0.00 312.78 149.30" xmlns="http://www.w3.org/2000/svg" xmlns:xlink="http://www.w3.org/1999/xlink">
<g id="graph0" class="graph" transform="scale(0.24 0.24) rotate(0) translate(4 145.3)">
<title>%3</title>
<polygon fill="white" stroke="transparent" points="-4,4 -4,-145.3 308.78,-145.3 308.78,4 -4,4"/>
<!-- 0 -->
<g id="node1" class="node">
<title>0</title>
<ellipse fill="none" stroke="black" cx="290.28" cy="-14.5" rx="14.5" ry="14.5"/>
<text text-anchor="middle" x="290.28" y="-10.8" font-family="Times,serif" font-size="14.00">P0</text>
</g>
<!-- 1 -->
<g id="node2" class="node">
<title>1</title>
<ellipse fill="none" stroke="black" cx="290.11" cy="-126.8" rx="14.5" ry="14.5"/>
<text text-anchor="middle" x="290.11" y="-123.1" font-family="Times,serif" font-size="14.00">P1</text>
</g>
<!-- 0&#45;&#45;1 -->
<g id="edge1" class="edge">
<title>0&#45;&#45;1</title>
<path fill="none" stroke="black" d="M290.26,-29.18C290.23,-50.7 290.16,-90.59 290.13,-112.11"/>
</g>
<!-- 2 -->
<g id="node3" class="node">
<title>2</title>
<ellipse fill="none" stroke="black" cx="164.66" cy="-70.63" rx="14.5" ry="14.5"/>
<text text-anchor="middle" x="164.66" y="-66.93" font-family="Times,serif" font-size="14.00">P2</text>
</g>
<!-- 0&#45;&#45;2 -->
<g id="edge2" class="edge">
<title>0&#45;&#45;2</title>
<path fill="none" stroke="black" d="M276.84,-20.51C252.66,-31.31 202.12,-53.89 178.01,-64.67"/>
</g>
<!-- 1&#45;&#45;2 -->
<g id="edge3" class="edge">
<title>1&#45;&#45;2</title>
<path fill="none" stroke="black" d="M276.68,-120.78C252.54,-109.97 202.07,-87.38 177.99,-76.6"/>
</g>
<!-- 3 -->
<g id="node4" class="node">
<title>3</title>
<ellipse fill="none" stroke="black" cx="14.5" cy="-70.59" rx="14.5" ry="14.5"/>
<text text-anchor="middle" x="14.5" y="-66.89" font-family="Times,serif" font-size="14.00">P3</text>
</g>
<!-- 2&#45;&#45;3 -->
<g id="edge4" class="edge">
<title>2&#45;&#45;3</title>
<path fill="none" stroke="black" d="M149.99,-70.63C121.21,-70.62 57.66,-70.6 29.01,-70.6"/>
</g>
</g>
</svg>
