<?xml version="1.0" encoding="UTF-8" standalone="no"?>
<!DOCTYPE svg PUBLIC "-//W3C//DTD SVG 1.1//EN"
 "http://www.w3.org/Graphics/SVG/1.1/DTD/svg11.dtd">
<!-- Generated by graphviz version 2.43.0 (0)
 -->
<!-- Title: %3 Pages: 1 -->
<svg width="429pt" height="862pt"
 viewBox="0.00 0.00 103.00 207.00" xmlns="http://www.w3.org/2000/svg" xmlns:xlink="http://www.w3.org/1999/xlink">
<g id="graph0" class="graph" transform="scale(0.24 0.24) rotate(0) translate(4 203)">
<title>%3</title>
<polygon fill="white" stroke="transparent" points="-4,4 -4,-203 99,-203 99,4 -4,4"/>
<!-- 0 -->
<g id="node1" class="node">
<title>0</title>
<ellipse fill="none" stroke="black" cx="58" cy="-188" rx="11" ry="11"/>
<text text-anchor="middle" x="58" y="-185.5" font-family="Noto Serif" font-size="10.00">P0</text>
</g>
<!-- 1 -->
<g id="node2" class="node">
<title>1</title>
<ellipse fill="none" stroke="black" cx="11" cy="-129" rx="11" ry="11"/>
<text text-anchor="middle" x="11" y="-126.5" font-family="Noto Serif" font-size="10.00">P1</text>
</g>
<!-- 0&#45;&#45;1 -->
<g id="edge1" class="edge">
<title>0&#45;&#45;1</title>
<path fill="none" stroke="black" d="M51.46,-179.07C42.59,-168.31 26.79,-149.15 17.78,-138.23"/>
<text text-anchor="middle" x="38" y="-156.3" font-family="Noto Serif" font-size="9.00">1</text>
</g>
<!-- 2 -->
<g id="node3" class="node">
<title>2</title>
<ellipse fill="none" stroke="black" cx="49" cy="-70" rx="11" ry="11"/>
<text text-anchor="middle" x="49" y="-67.5" font-family="Noto Serif" font-size="10.00">P2</text>
</g>
<!-- 0&#45;&#45;2 -->
<g id="edge2" class="edge">
<title>0&#45;&#45;2</title>
<path fill="none" stroke="black" d="M57.2,-176.71C55.49,-154.64 51.48,-103 49.78,-81.11"/>
<text text-anchor="middle" x="57" y="-126.8" font-family="Noto Serif" font-size="9.00">3</text>
</g>
<!-- 3 -->
<g id="node4" class="node">
<title>3</title>
<ellipse fill="none" stroke="black" cx="84" cy="-11" rx="11" ry="11"/>
<text text-anchor="middle" x="84" y="-8.5" font-family="Noto Serif" font-size="10.00">P3</text>
</g>
<!-- 0&#45;&#45;3 -->
<g id="edge3" class="edge">
<title>0&#45;&#45;3</title>
<path fill="none" stroke="black" d="M62.32,-177.87C64.67,-172.5 67.42,-165.5 69,-159 81.22,-108.64 83.49,-46.23 83.91,-22.14"/>
<text text-anchor="middle" x="82" y="-97.3" font-family="Noto Serif" font-size="9.00">1</text>
</g>
<!-- 1&#45;&#45;2 -->
<g id="edge4" class="edge">
<title>1&#45;&#45;2</title>
<path fill="none" stroke="black" d="M16.94,-119.09C24.12,-108.32 36.12,-90.31 43.23,-79.66"/>
<text text-anchor="middle" x="33" y="-97.3" font-family="Noto Serif" font-size="9.00">1</text>
</g>
<!-- 4 -->
<g id="node5" class="node">
<title>4</title>
<ellipse fill="none" stroke="black" cx="36" cy="-11" rx="11" ry="11"/>
<text text-anchor="middle" x="36" y="-8.5" font-family="Noto Serif" font-size="10.00">P4</text>
</g>
<!-- 1&#45;&#45;4 -->
<g id="edge5" class="edge">
<title>1&#45;&#45;4</title>
<path fill="none" stroke="black" d="M13.13,-118.11C17.85,-96.19 29.16,-43.76 33.87,-21.87"/>
<text text-anchor="middle" x="29" y="-67.8" font-family="Noto Serif" font-size="9.00">1</text>
</g>
<!-- 2&#45;&#45;3 -->
<g id="edge6" class="edge">
<title>2&#45;&#45;3</title>
<path fill="none" stroke="black" d="M54.47,-60.09C61.08,-49.32 72.14,-31.31 78.68,-20.66"/>
<text text-anchor="middle" x="69" y="-38.3" font-family="Noto Serif" font-size="9.00">1</text>
</g>
<!-- 2&#45;&#45;4 -->
<g id="edge7" class="edge">
<title>2&#45;&#45;4</title>
<path fill="none" stroke="black" d="M46.74,-59.07C44.35,-48.61 40.61,-32.23 38.24,-21.81"/>
<text text-anchor="middle" x="45" y="-38.3" font-family="Noto Serif" font-size="9.00">2</text>
</g>
</g>
</svg>
